<svg width="24" height="18" viewBox="0 0 24 18" fill="none" xmlns="http://www.w3.org/2000/svg">
<path d="M23.625 1.83002C23.625 1.54127 22.4138 1.29377 20.7488 1.21502C20.6879 1.21204 20.629 1.19271 20.5781 1.15905C20.5273 1.1254 20.4865 1.07866 20.46 1.02377C20.3793 0.84797 20.2498 0.699025 20.087 0.594609C19.9241 0.490194 19.7347 0.434692 19.5413 0.434692C19.3478 0.434692 19.1584 0.490194 18.9956 0.594609C18.8327 0.699025 18.7033 0.84797 18.6225 1.02377C18.57 1.13627 18.4575 1.20752 18.3338 1.21502C16.6688 1.29752 15.4575 1.54127 15.4575 1.83002C15.4575 2.13752 16.8075 2.39252 18.615 2.46002L18.7463 4.15127C18.7463 4.15127 18.75 4.17002 18.7538 4.18127C17.9588 4.37252 17.1675 4.50752 16.3725 4.61252C16.2788 4.34627 16.0275 4.15127 15.7313 4.15127H14.895C14.2538 3.25502 13.2075 2.65127 11.9888 2.65127C10.77 2.65127 9.72379 3.25502 9.08254 4.15127H8.24629C7.95004 4.15127 7.69879 4.34252 7.60504 4.60877C6.81004 4.50002 6.01504 4.35377 5.22754 4.17002C5.22754 4.16252 5.22754 4.15502 5.23129 4.15127L5.36254 2.46002C7.17004 2.39252 8.52004 2.13752 8.52004 1.83002C8.52004 1.54127 7.30879 1.29377 5.64379 1.21502C5.58291 1.21204 5.52396 1.19271 5.47315 1.15905C5.42233 1.1254 5.38153 1.07866 5.35504 1.02377C5.27431 0.84797 5.14483 0.699025 4.98198 0.594609C4.81913 0.490194 4.62974 0.434692 4.43629 0.434692C4.24284 0.434692 4.05345 0.490194 3.8906 0.594609C3.72775 0.699025 3.59827 0.84797 3.51754 1.02377C3.46504 1.13627 3.35254 1.20752 3.22879 1.21502C1.56379 1.29752 0.352539 1.54127 0.352539 1.83002C0.352539 2.13752 1.70254 2.39252 3.51004 2.46002L3.63754 4.09127C2.84629 4.39877 2.28379 5.28377 2.56129 6.18002C2.62194 6.39942 2.72531 6.60468 2.86549 6.78402C3.00566 6.96336 3.17988 7.11326 3.37813 7.2251C3.57638 7.33695 3.79477 7.40854 4.02076 7.43576C4.24675 7.46299 4.47589 7.44532 4.69504 7.38377C5.65504 7.14002 6.62629 6.95627 7.59754 6.82127C7.69129 7.08752 7.94254 7.27877 8.23879 7.27877H8.55379L8.56504 7.33127C8.58754 7.42502 8.61754 7.51127 8.65129 7.59752C8.65129 7.59752 6.14629 9.38252 6.13879 9.39002C6.01129 9.52127 5.93254 9.70127 5.93254 9.90002V12.9188C5.95879 13.89 7.38004 13.8863 7.40254 12.9188V10.23L9.89629 8.70752C10.05 8.74877 10.2113 8.77877 10.3763 8.77877H13.575C13.74 8.77877 13.9013 8.74877 14.055 8.70752L16.5488 10.23V12.9188C16.5488 13.3238 16.8788 13.6538 17.2838 13.6538C17.6888 13.6538 18.0188 13.3238 18.0188 12.9188V9.90002C18.0188 9.70877 17.94 9.51002 17.79 9.36752L15.3 7.59752C15.3338 7.51127 15.3638 7.42502 15.3863 7.33127L15.3975 7.27877H15.7125C16.0125 7.27877 16.2638 7.08377 16.3538 6.81752C17.325 6.94127 18.3 7.11377 19.2713 7.38377C19.5638 7.46252 19.8863 7.47002 20.2013 7.38377C22.005 6.81377 21.7163 4.55627 20.3138 4.07627L20.4413 2.45627C22.2488 2.38877 23.5988 2.13377 23.5988 1.82627L23.625 1.83002Z" fill="white"/>
<path d="M15.8663 15.1051C15.795 15.0188 14.1263 13.0651 12 13.0651C9.87377 13.0651 8.20127 15.0188 8.13377 15.1051L7.95752 15.3113L8.13377 15.5213C8.20502 15.6076 9.87377 17.5651 12 17.5651C14.1263 17.5651 15.7988 15.6076 15.8663 15.5213L16.0425 15.3113L15.8663 15.1051ZM12 16.8563C11.5913 16.8563 11.1992 16.6939 10.9102 16.4049C10.6212 16.1159 10.4588 15.7238 10.4588 15.3151C10.4588 14.9063 10.6212 14.5143 10.9102 14.2252C11.1992 13.9362 11.5913 13.7738 12 13.7738C12.4088 13.7738 12.8008 13.9362 13.0898 14.2252C13.3789 14.5143 13.5413 14.9063 13.5413 15.3151C13.5413 15.7238 13.3789 16.1159 13.0898 16.4049C12.8008 16.6939 12.4088 16.8563 12 16.8563Z" fill="white"/>
<path d="M12.9113 15.555C12.8576 15.7557 12.7392 15.9332 12.5745 16.0599C12.4098 16.1867 12.2079 16.2556 12.0001 16.2562C11.4826 16.2562 11.0588 15.8325 11.0588 15.315C11.0588 14.8762 11.3551 14.5125 11.7563 14.4075C11.7649 14.7104 11.8896 14.9984 12.1046 15.212C12.3195 15.4256 12.6084 15.5484 12.9113 15.555Z" fill="white"/>
</svg>
