<svg width="24" height="18" viewBox="0 0 24 18" fill="none" xmlns="http://www.w3.org/2000/svg">
<path d="M4.04176 4.21045C3.78737 4.21045 3.58032 4.41745 3.58032 4.67189C3.58032 4.92632 3.78732 5.13332 4.04176 5.13332C4.2962 5.13332 4.5032 4.92632 4.5032 4.67189C4.5032 4.41745 4.29615 4.21045 4.04176 4.21045Z" fill="#2A363B"/>
<path d="M4.0417 0.630127C1.81313 0.630127 0 2.44325 0 4.67178C0 5.77578 0.602203 7.21822 1.78983 8.95902C2.63948 10.2044 3.47817 11.1462 3.51342 11.1857C3.57989 11.26 3.6613 11.3195 3.75234 11.3602C3.84337 11.401 3.94197 11.422 4.0417 11.422C4.14143 11.422 4.24004 11.401 4.33107 11.3602C4.4221 11.3195 4.50352 11.26 4.56998 11.1857C4.60528 11.1462 5.44392 10.2044 6.29358 8.95902C7.48125 7.21827 8.08341 5.77578 8.08341 4.67178C8.08341 2.44325 6.27028 0.630127 4.0417 0.630127ZM4.0417 6.55025C3.00595 6.55025 2.16328 5.70758 2.16328 4.67183C2.16328 3.63603 3.00595 2.79341 4.0417 2.79341C5.0775 2.79341 5.92013 3.63608 5.92013 4.67183C5.92017 5.70758 5.07745 6.55025 4.0417 6.55025ZM16.7071 15.9529H14.9439C13.6948 15.9529 12.6785 14.9366 12.6785 13.6875C12.6785 11.657 11.0265 10.005 8.99602 10.005H7.29291C6.90155 10.5627 6.52102 11.0531 6.22256 11.422H8.99611C10.2453 11.422 11.2615 12.4383 11.2615 13.6875C11.2615 15.718 12.9135 17.3699 14.944 17.3699H17.7774C17.4789 17.001 17.0984 16.5105 16.7071 15.9529ZM19.9583 10.1583C19.7039 10.1583 19.4969 10.3653 19.4969 10.6198C19.4969 10.8742 19.7039 11.0812 19.9583 11.0812C20.2127 11.0812 20.4197 10.8742 20.4197 10.6198C20.4197 10.3653 20.2127 10.1583 19.9583 10.1583Z" fill="#2A363B"/>
<path d="M19.9582 6.578C17.7296 6.578 15.9165 8.39113 15.9165 10.6197C15.9165 11.7237 16.5187 13.1661 17.7063 14.9069C18.556 16.1523 19.3946 17.0941 19.4299 17.1335C19.4964 17.2079 19.5778 17.2674 19.6688 17.3081C19.7599 17.3488 19.8585 17.3699 19.9582 17.3699C20.0579 17.3699 20.1566 17.3488 20.2476 17.3081C20.3386 17.2674 20.4201 17.2079 20.4865 17.1335C20.5218 17.0941 21.3605 16.1523 22.2101 14.9069C23.3978 13.1662 23.9999 11.7237 23.9999 10.6197C23.9999 8.39108 22.1867 6.578 19.9582 6.578ZM19.9582 12.4981C18.9224 12.4981 18.0797 11.6555 18.0797 10.6197C18.0797 9.58391 18.9224 8.74128 19.9582 8.74128C20.9939 8.74128 21.8366 9.58396 21.8366 10.6197C21.8366 11.6555 20.994 12.4981 19.9582 12.4981Z" fill="#2A363B"/>
</svg>
