<svg width="20" height="20" viewBox="0 0 20 20" fill="none" xmlns="http://www.w3.org/2000/svg">
<path d="M9.41407 5.63562L4.72656 3.29187V8.78906C4.72656 9.01109 4.85246 9.21363 5.05043 9.3132L9.41407 11.495V5.63562ZM10 4.61827L14.6875 2.27452L10.2621 0.0617872C10.1807 0.0211527 10.091 0 10 0C9.90904 0 9.81932 0.0211527 9.73793 0.0617872L5.3125 2.27452L10 4.61827ZM10.5859 5.63562V11.495L14.9496 9.3132C15.1475 9.21363 15.2734 9.01109 15.2734 8.78906V3.29187L10.5859 5.63562ZM20 6.52343C20 6.1971 19.7287 5.9362 19.4024 5.93753C19.3936 5.93757 19.3848 5.93765 19.376 5.93777C18.3788 5.95105 17.5867 6.78882 17.581 7.78605L17.5556 12.2352C17.5536 12.4674 17.3872 12.6427 17.3839 12.646L14.2802 15.7502C14.0514 15.9791 13.6806 15.9791 13.4517 15.7502C13.2228 15.5214 13.2228 15.1505 13.4517 14.9217L16.385 11.9878L16.3872 11.6104C16.388 11.4742 16.3412 11.342 16.255 11.2365C16.1688 11.1311 16.0485 11.0591 15.9148 11.0329C14.9724 10.8465 13.9296 11.1334 13.2457 11.8163L10.7966 14.2653C10.7422 14.3198 10.699 14.3844 10.6696 14.4555C10.6401 14.5266 10.625 14.6028 10.625 14.6798V19.4141C10.625 19.7377 10.8873 20 11.2109 20H14.7265C15.0504 20 15.3125 19.7379 15.3125 19.4141V18.3692L19.8409 13.5581C19.9431 13.4496 20 13.3061 20 13.157L20 6.52343ZM9.375 14.6798C9.375 14.5244 9.31325 14.3753 9.20332 14.2654L6.7543 11.8164C6.1934 11.2555 5.39047 10.9617 4.59871 10.9778C4.04988 10.989 3.61121 11.4387 3.61477 11.9877L6.54832 14.9217C6.77719 15.1506 6.77719 15.5214 6.54832 15.7503C6.31946 15.9791 5.94867 15.9792 5.71977 15.7503L2.61613 12.6461C2.53352 12.5634 2.44563 12.3973 2.44445 12.2358L2.4157 7.78081C2.4093 6.78589 1.61852 5.95093 0.623672 5.93781C0.61491 5.93769 0.606146 5.93761 0.597383 5.93757C0.271172 5.93624 0 6.19722 0 6.52343V13.157C0 13.3061 0.0569141 13.4496 0.159063 13.5581L4.6875 18.3692V19.4141C4.6875 19.7379 4.94957 20 5.27344 20H8.78907C9.11266 20 9.375 19.7377 9.375 19.4141V14.6798Z" fill="#2A363B"/>
</svg>
