<svg width="20" height="20" viewBox="0 0 20 20" fill="none" xmlns="http://www.w3.org/2000/svg">
<path d="M19.4141 18.8281H0.585938C0.262344 18.8281 0 19.0905 0 19.4141C0 19.7377 0.262344 20 0.585938 20H19.4141C19.7377 20 20 19.7377 20 19.4141C20 19.0905 19.7377 18.8281 19.4141 18.8281ZM1.79688 14.0625C1.47328 14.0625 1.21094 14.3248 1.21094 14.6484V17.0703C1.21094 17.3939 1.47328 17.6562 1.79688 17.6562H4.14062C4.46422 17.6562 4.72656 17.3939 4.72656 17.0703V14.6484C4.72656 14.3248 4.46422 14.0625 4.14062 14.0625H1.79688ZM6.48438 17.6562H8.82812C9.15172 17.6562 9.41406 17.3939 9.41406 17.0703V12.6953C9.41406 12.3717 9.15172 12.1094 8.82812 12.1094H6.48438C6.16078 12.1094 5.89844 12.3717 5.89844 12.6953V17.0703C5.89844 17.3939 6.16078 17.6562 6.48438 17.6562ZM11.1719 13.2812C10.8483 13.2812 10.5859 13.5436 10.5859 13.8672V17.0703C10.5859 17.3939 10.8483 17.6562 11.1719 17.6562H13.5156C13.8392 17.6562 14.1016 17.3939 14.1016 17.0703V13.8672C14.1016 13.5436 13.8392 13.2812 13.5156 13.2812H11.1719ZM15.2734 9.96094V17.0703C15.2734 17.3939 15.5358 17.6562 15.8594 17.6562H18.2031C18.5267 17.6562 18.7891 17.3939 18.7891 17.0703V9.96094C18.7891 9.63734 18.5267 9.375 18.2031 9.375H15.8594C15.5358 9.375 15.2734 9.63734 15.2734 9.96094ZM4.6875 9.375C7.27633 9.375 9.375 7.27633 9.375 4.6875C9.375 2.09867 7.27633 0 4.6875 0C2.09867 0 0 2.09867 0 4.6875C0 7.27633 2.09867 9.375 4.6875 9.375ZM4.6875 7.8125C4.36391 7.8125 4.10156 7.55016 4.10156 7.22656C4.10156 6.90297 4.36391 6.64062 4.6875 6.64062C5.01109 6.64062 5.27344 6.90297 5.27344 7.22656C5.27344 7.55016 5.01109 7.8125 4.6875 7.8125ZM2.9466 3.07605C3.06949 2.19535 3.83465 1.54496 4.72348 1.56285C5.64016 1.58133 6.39539 2.31254 6.44293 3.22758C6.4682 3.71461 6.2975 4.17727 5.96227 4.53039C5.77098 4.73134 5.53498 4.88431 5.27344 4.97687V5.46875C5.27344 5.79234 5.01109 6.05469 4.6875 6.05469C4.36391 6.05469 4.10156 5.79234 4.10156 5.46875V4.49219C4.10156 4.16859 4.36391 3.90625 4.6875 3.90625C4.84957 3.90625 5.00051 3.84133 5.11242 3.72348C5.22418 3.60574 5.28105 3.45121 5.27266 3.28832C5.25711 2.98898 5.00016 2.74051 4.69992 2.73445C4.69591 2.73441 4.6919 2.73438 4.68789 2.73438C4.39605 2.73438 4.14758 2.94883 4.10727 3.23785C4.10345 3.26517 4.10155 3.29273 4.10156 3.32031C4.10156 3.64391 3.83922 3.90625 3.51562 3.90625C3.19203 3.90625 2.92969 3.64391 2.92969 3.32031C2.92969 3.23875 2.93539 3.1566 2.9466 3.07605ZM8.49609 9.13648C8.1239 9.45566 7.71323 9.72703 7.27367 9.94426L12.1467 11.6846C12.2673 11.7277 12.3986 11.7301 12.5206 11.6915C12.6426 11.6528 12.7487 11.5753 12.8225 11.4707L16.6986 5.97961L16.8612 6.90215C16.9174 7.22082 17.2213 7.43363 17.54 7.37742C17.8587 7.32121 18.0714 7.0173 18.0153 6.69863L17.6083 4.39047C17.5521 4.0718 17.2482 3.85898 16.9295 3.9152L14.6213 4.32219C14.3027 4.3784 14.0898 4.6823 14.1461 5.00098C14.2023 5.31965 14.5062 5.53246 14.8248 5.47625L15.7324 5.31621L12.1217 10.4313L8.49609 9.13648ZM4.6875 10.5469C4.53984 10.5469 4.39352 10.5412 4.24859 10.5305L2.60273 11.8471C2.35004 12.0493 2.30906 12.418 2.51121 12.6707C2.71336 12.9234 3.08207 12.9644 3.33477 12.7622L6.43777 10.2798C5.88484 10.4532 5.29691 10.5469 4.6875 10.5469Z" fill="#2A363B"/>
</svg>
