<svg width="280" height="56" viewBox="0 0 280 56" fill="none" xmlns="http://www.w3.org/2000/svg">
<path d="M118.444 22.1412C118.444 21.1391 118.058 20.7502 116.864 20.7502H103.016V24.5344H116.758C118.023 24.5344 118.447 24.1454 118.447 23.2414V22.1412H118.444ZM117.883 14.38C117.883 13.4725 117.463 13.1186 116.478 13.1186H103.016V16.7732H116.548C117.498 16.7732 117.883 16.3843 117.883 15.4487V14.3836V14.38ZM97.1471 29.9339V7.68408H116.478C121.892 7.68408 123.682 8.91395 123.682 13.5356V14.8285C123.682 16.9309 122.663 18.0626 120.693 18.42C122.698 18.7109 124.278 19.9407 124.278 22.5266V23.9807C124.278 28.6374 122.168 29.9304 116.755 29.9304H97.1436L97.1471 29.9339Z" fill="#2D2D2D"/>
<path d="M135.105 29.9374C129.516 29.9374 127.687 27.8701 127.687 23.5568V13.9841H133.486V24.205C133.486 25.2107 133.942 25.7117 135.102 25.7117H140.585C141.5 25.7117 142.025 25.2387 142.13 24.6185V13.9841H147.929V29.9374C146.03 29.9374 144.415 29.0229 144.029 27.6319C143.43 29.1666 141.745 29.9374 138.9 29.9374H135.105Z" fill="#2D2D2D"/>
<path d="M151.871 29.9374V9.22933L157.67 7.60352V29.9374H151.871Z" fill="#2D2D2D"/>
<path d="M176.507 20.0388C176.507 18.7985 176.192 18.2063 174.857 18.2063H169.198C168.108 18.2063 167.583 18.5322 167.443 19.268V24.4363C167.583 25.1756 168.112 25.7082 169.198 25.7082H174.857C176.087 25.7082 176.507 25.2947 176.507 23.8756V20.0353V20.0388ZM170.708 29.9339C167.863 29.9339 166.139 29.1665 165.578 27.6283C165.158 29.0159 163.539 29.9339 161.644 29.9339V9.22579L167.443 7.59998V16.1075C168.497 14.5132 169.762 13.9806 171.731 13.9806H174.86C180.484 13.9806 182.31 16.0479 182.31 20.3612V23.5533C182.31 27.8666 180.484 29.9339 174.86 29.9339H170.712H170.708Z" fill="#2D2D2D"/>
<path d="M193.592 29.9374C188.003 29.9374 186.174 27.8701 186.174 23.5568V13.9841H191.973V24.205C191.973 25.2107 192.429 25.7117 193.589 25.7117H199.072C199.987 25.7117 200.512 25.2387 200.618 24.6185V13.9841H206.416V29.9374C204.517 29.9374 202.902 29.0229 202.517 27.6319C201.917 29.1666 200.232 29.9374 197.387 29.9374H193.592Z" fill="#2D2D2D"/>
<path d="M210.358 29.9374V9.22933L216.157 7.60352V29.9374H210.358Z" fill="#2D2D2D"/>
<path d="M104.151 46.0904C104.947 45.3511 105.343 44.3139 105.343 42.9789C105.343 41.6439 104.943 40.5822 104.141 39.8289C103.342 39.0721 102.189 38.6971 100.69 38.6971H98.5732V47.2011H100.69C102.2 47.2011 103.353 46.8332 104.148 46.0904M104.004 38.2066C104.94 38.6481 105.655 39.2753 106.152 40.0917C106.65 40.9081 106.898 41.8717 106.898 42.9789C106.898 44.0861 106.65 45.0462 106.152 45.8591C105.655 46.672 104.936 47.2922 104.004 47.7232C103.069 48.1542 101.965 48.3679 100.686 48.3679H97.042V37.5479H100.686C101.961 37.5479 103.069 37.7686 104.004 38.2066Z" fill="#2D2D2D"/>
<path d="M111.601 40.1093C112.098 39.8395 112.708 39.7063 113.423 39.7063V41.1639H113.02C111.306 41.1639 110.452 42.0224 110.452 43.7393V48.3645H108.924V39.857H110.452V41.2375C110.721 40.7505 111.103 40.372 111.601 40.1057" fill="#2D2D2D"/>
<path d="M120.746 46.9068C121.226 46.6686 121.615 46.3112 121.913 45.8346C122.21 45.3581 122.358 44.7799 122.358 44.0967C122.358 43.4134 122.21 42.8353 121.92 42.3587C121.629 41.8822 121.247 41.5283 120.777 41.2971C120.308 41.0658 119.796 40.9467 119.25 40.9467C118.703 40.9467 118.177 41.0623 117.715 41.2971C117.249 41.5318 116.878 41.8857 116.597 42.3587C116.317 42.8353 116.177 43.4134 116.177 44.0967C116.177 44.7799 116.313 45.3756 116.59 45.8521C116.864 46.3287 117.231 46.6826 117.69 46.9138C118.149 47.1451 118.654 47.2642 119.201 47.2642C119.747 47.2642 120.266 47.1451 120.746 46.9068ZM116.857 47.9615C116.156 47.6006 115.609 47.0855 115.21 46.4163C114.814 45.747 114.614 44.9762 114.614 44.0967C114.614 43.2172 114.817 42.4604 115.227 41.7911C115.637 41.1219 116.194 40.6103 116.899 40.2529C117.603 39.8955 118.395 39.7168 119.267 39.7168C120.14 39.7168 120.932 39.8955 121.636 40.2529C122.34 40.6103 122.897 41.1184 123.307 41.7806C123.717 42.4428 123.92 43.2137 123.92 44.0932C123.92 44.9727 123.71 45.747 123.29 46.4128C122.869 47.082 122.302 47.5936 121.583 47.958C120.865 48.3189 120.073 48.5011 119.197 48.5011C118.321 48.5011 117.554 48.3189 116.853 47.958" fill="#2D2D2D"/>
<path d="M133.139 40.6419C133.833 41.2691 134.18 42.1696 134.18 43.3504V48.3645H132.67V43.5536C132.67 42.7057 132.439 42.0574 131.983 41.6054C131.524 41.1569 130.897 40.9292 130.101 40.9292C129.306 40.9292 128.654 41.1604 128.178 41.6265C127.701 42.0925 127.463 42.7687 127.463 43.6587V48.361H125.935V39.8535H127.463V41.0623C127.764 40.6278 128.178 40.2915 128.696 40.0532C129.218 39.8149 129.79 39.6958 130.417 39.6958C131.538 39.6958 132.442 40.0077 133.139 40.6349" fill="#2D2D2D"/>
<path d="M143.115 42.103C142.859 41.714 142.509 41.4197 142.067 41.22C141.626 41.0167 141.135 40.9186 140.599 40.9186C139.825 40.9186 139.169 41.1464 138.626 41.6019C138.083 42.0574 137.771 42.6881 137.694 43.4975H143.507C143.507 42.9579 143.378 42.4954 143.122 42.1065M145.038 44.6433H137.68C137.736 45.4807 138.048 46.136 138.612 46.6055C139.176 47.075 139.863 47.3098 140.669 47.3098C141.331 47.3098 141.881 47.1661 142.323 46.8823C142.764 46.5985 143.076 46.2165 143.255 45.74H144.902C144.657 46.5564 144.162 47.2222 143.423 47.7337C142.684 48.2453 141.766 48.5011 140.669 48.5011C139.797 48.5011 139.015 48.3189 138.325 47.958C137.635 47.5971 137.095 47.082 136.703 46.4128C136.31 45.7435 136.114 44.9727 136.114 44.0932C136.114 43.2137 136.303 42.4428 136.685 41.7806C137.067 41.1184 137.6 40.6103 138.29 40.2529C138.977 39.8955 139.772 39.7168 140.666 39.7168C141.559 39.7168 142.312 39.892 142.985 40.2459C143.658 40.5963 144.173 41.0798 144.537 41.6965C144.902 42.3132 145.084 43.007 145.084 43.7848C145.084 44.0546 145.066 44.3385 145.035 44.6398" fill="#2D2D2D"/>
<path d="M158.686 46.0904C159.482 45.3511 159.878 44.3139 159.878 42.9789C159.878 41.6439 159.478 40.5822 158.676 39.8289C157.877 39.0721 156.724 38.6971 155.224 38.6971H153.108V47.2011H155.224C156.735 47.2011 157.887 46.8332 158.686 46.0904ZM158.543 38.2066C159.478 38.6481 160.193 39.2753 160.69 40.0917C161.188 40.9081 161.437 41.8717 161.437 42.9789C161.437 44.0861 161.188 45.0462 160.69 45.8591C160.193 46.672 159.475 47.2922 158.543 47.7232C157.607 48.1542 156.503 48.3679 155.224 48.3679H151.58V37.5479H155.224C156.5 37.5479 157.607 37.7686 158.543 38.2066Z" fill="#2D2D2D"/>
<path d="M169.888 42.103C169.632 41.714 169.282 41.4197 168.841 41.22C168.399 41.0203 167.909 40.9186 167.372 40.9186C166.598 40.9186 165.943 41.1464 165.4 41.6019C164.857 42.0574 164.545 42.6881 164.468 43.4975H170.281C170.281 42.9579 170.151 42.4954 169.895 42.1065M171.812 44.6433H164.454C164.51 45.4807 164.822 46.136 165.386 46.6055C165.95 47.075 166.637 47.3098 167.443 47.3098C168.105 47.3098 168.655 47.1661 169.096 46.8823C169.538 46.5985 169.85 46.2165 170.028 45.74H171.675C171.43 46.5564 170.936 47.2222 170.197 47.7337C169.457 48.2453 168.539 48.5011 167.443 48.5011C166.57 48.5011 165.789 48.3189 165.098 47.958C164.408 47.5971 163.869 47.082 163.476 46.4128C163.084 45.7435 162.887 44.9727 162.887 44.0932C162.887 43.2137 163.077 42.4428 163.459 41.7806C163.841 41.1184 164.373 40.6103 165.063 40.2529C165.75 39.8955 166.546 39.7168 167.439 39.7168C168.333 39.7168 169.086 39.892 169.759 40.2459C170.431 40.5963 170.95 41.0798 171.311 41.6965C171.675 42.3132 171.857 43.007 171.857 43.7848C171.857 44.0546 171.84 44.3385 171.808 44.6398" fill="#2D2D2D"/>
<path d="M175.396 36.8787H173.869V48.3645H175.396V36.8787Z" fill="#2D2D2D"/>
<path d="M179.531 48.3644H178.003V39.8569H179.531V48.3644ZM178.052 38.1996C177.853 38.0139 177.751 37.7861 177.751 37.5163C177.751 37.2465 177.853 37.0188 178.052 36.8331C178.252 36.6473 178.501 36.5527 178.792 36.5527C179.082 36.5527 179.31 36.6473 179.506 36.8331C179.703 37.0188 179.801 37.2465 179.801 37.5163C179.801 37.7861 179.703 38.0139 179.506 38.1996C179.31 38.3853 179.072 38.4799 178.792 38.4799C178.511 38.4799 178.256 38.3888 178.052 38.1996Z" fill="#2D2D2D"/>
<path d="M185.558 47.061L188.413 39.8605H190.043L186.434 48.3645H184.65L181.041 39.8605H182.688L185.558 47.061Z" fill="#2D2D2D"/>
<path d="M197.986 42.103C197.727 41.714 197.38 41.4197 196.938 41.22C196.497 41.0167 196.006 40.9186 195.47 40.9186C194.696 40.9186 194.041 41.1464 193.498 41.6019C192.954 42.0574 192.643 42.6881 192.565 43.4975H198.378C198.378 42.9579 198.249 42.4954 197.993 42.1065M199.91 44.6433H192.551C192.608 45.4807 192.919 46.136 193.484 46.6055C194.048 47.075 194.734 47.3098 195.54 47.3098C196.203 47.3098 196.753 47.1661 197.194 46.8823C197.636 46.5985 197.947 46.2165 198.126 45.74H199.773C199.528 46.5564 199.034 47.2222 198.294 47.7337C197.555 48.2453 196.637 48.5011 195.54 48.5011C194.668 48.5011 193.886 48.3189 193.196 47.958C192.506 47.5971 191.966 47.082 191.574 46.4128C191.181 45.7435 190.985 44.9727 190.985 44.0932C190.985 43.2137 191.174 42.4428 191.556 41.7806C191.938 41.1184 192.471 40.6103 193.161 40.2529C193.848 39.8955 194.643 39.7168 195.537 39.7168C196.43 39.7168 197.184 39.892 197.856 40.2459C198.529 40.5963 199.044 41.0798 199.409 41.6965C199.773 42.3132 199.955 43.007 199.955 43.7848C199.955 44.0546 199.938 44.3385 199.906 44.6398" fill="#2D2D2D"/>
<path d="M204.647 40.1093C205.145 39.8395 205.754 39.7063 206.469 39.7063V41.1639H206.066C204.353 41.1639 203.498 42.0224 203.498 43.7393V48.3645H201.97V39.857H203.498V41.2375C203.767 40.7505 204.149 40.372 204.647 40.1057" fill="#2D2D2D"/>
<path d="M216.161 39.8605L210.618 52.3694H209.041L210.852 48.2734L207.142 39.8605H208.838L211.725 46.7527L214.581 39.8605H216.161Z" fill="#2D2D2D"/>
<path d="M72.0451 21.1671C72.0451 21.8469 71.4634 22.4005 70.7486 22.4005C70.0338 22.4005 69.4522 21.8469 69.4522 21.1671C69.4522 20.4874 70.0303 19.9338 70.7486 19.9338C71.2077 19.9338 71.6106 20.1615 71.8384 20.5049C71.9645 20.631 72.0416 20.7992 72.0416 20.9884C72.0416 21.02 72.0346 21.048 72.0311 21.076C72.0311 21.1041 72.0416 21.1356 72.0416 21.1636M80.2337 25.4594C79.7782 24.6605 78.9758 23.4026 78.0228 22.5897C75.4053 20.3507 72.1292 18.4481 68.3415 18.7004C63.7724 19.0017 59.1857 21.9976 57.5985 23.4096L59.2593 26.2058L55.0511 22.4986L24.9456 0.12267C24.4095 -0.273271 23.7157 0.371448 24.1222 0.890027L49.1471 32.7511C49.3082 32.9543 49.3012 33.2381 49.1295 33.4343L30.2785 55.085C29.837 55.593 30.5273 56.2798 31.0774 55.8803C42.3109 47.6952 72.9596 25.5015 75.3738 25.2141C77.7214 24.9338 78.9408 25.2562 79.9044 25.7678C80.1146 25.8799 80.3458 25.6626 80.2337 25.4594Z" fill="#E13946"/>
</svg>
